<svg xmlns="http://www.w3.org/2000/svg" id="icono_distancia" width="15.733" height="15.74" data-name="icono distancia" viewBox="0 0 15.733 15.74">
    <defs>
        <style>
            .cls-1{fill:#ff2c4b}
        </style>
    </defs>
    <g id="Grupo_141" data-name="Grupo 141">
        <path id="Trazado_145" d="M5034.789-697h.983a1.163 1.163 0 0 0 .134.026 7.568 7.568 0 0 1 2.289.535.309.309 0 0 0 .283-.006 2.793 2.793 0 0 1 2.263-.111 2.88 2.88 0 0 1 1.653 3.829.292.292 0 0 0 .009.257 7.355 7.355 0 0 1 .624 1.981c.047.286.08.575.118.862v.983a.832.832 0 0 0-.025.118 7.478 7.478 0 0 1-1.9 4.53 7.58 7.58 0 0 1-7.948 2.447 7.769 7.769 0 0 1-5.559-9.647 7.632 7.632 0 0 1 6.231-5.685c.276-.056.562-.08.845-.119zm2.965 5.47a.836.836 0 0 1-.09.12q-.932.936-1.867 1.869c-.193.193-.313.193-.5 0l-2.044-2.042-2.954-2.95-.656.692 4.981 4.982c.187.188.187.307 0 .494l-1.716 1.716c-.186.185-.306.183-.495-.006l-4.138-4.138c-.032-.031-.066-.06-.136-.122-.059.433-.111.832-.17 1.23a.361.361 0 0 0 .127.335q1.685 1.672 3.359 3.353c.213.213.213.324 0 .539s-.456.456-.685.684l-.752.75.729.658c.052-.064.083-.112.123-.152q1.161-1.163 2.324-2.325c.2-.2.317-.2.517 0l2 2 1.729 1.735 1.152-.461-.129-.138-3.811-3.813c-.2-.2-.2-.316 0-.516l2.715-2.715c.231-.23.333-.231.56 0l3.781 3.78c.042.042.086.083.154.148l.465-1.179c-.091-.076-.157-.124-.214-.181q-.713-.71-1.424-1.422c-.21-.211-.212-.319 0-.527q.821-.82 1.64-1.642c.039-.039.092-.108.082-.147-.1-.361-.223-.719-.345-1.1-.044.054-.062.073-.076.093a7.292 7.292 0 0 1-2.008 1.918.345.345 0 0 1-.449 0c-.293-.223-.6-.43-.877-.67-.317-.261-.593-.551-.902-.85zm-.29-.454a3.342 3.342 0 0 1-.6-2.075 2.9 2.9 0 0 1 .965-1.962 7.277 7.277 0 0 0-3.9-.328 7.251 7.251 0 0 0-3.212 1.47l4.82 4.825zm-2.318 5.216a.313.313 0 0 0 .03.039q1.9 1.906 3.809 3.812a.114.114 0 0 0 .17.013 7.457 7.457 0 0 0 2.335-2.316.167.167 0 0 0-.033-.255q-1.659-1.651-3.313-3.31l-.49-.492zm4.595-9.442a2.347 2.347 0 0 0-2.262 1.68 2.55 2.55 0 0 0 .364 2.153 6.281 6.281 0 0 0 1.82 1.822.184.184 0 0 0 .169-.012c.3-.235.611-.466.893-.724a4.509 4.509 0 0 0 1.175-1.611 2.36 2.36 0 0 0-2.16-3.308zm-5.658 7.6l-4.781-4.777a7.1 7.1 0 0 0-.949 1.846.171.171 0 0 0 .051.137q1.393 1.4 2.789 2.793c.485.485.967.973 1.44 1.449l1.45-1.448zm-2.907 5.557a7.367 7.367 0 0 0 5.619 1.1l-3.36-3.355zm-.255-2.655l-2.961-2.96a7.332 7.332 0 0 0 1.691 4.234zm11.538-1.9a7.162 7.162 0 0 0 .082-2.6l-1.333 1.332z" class="cls-1" data-name="Trazado 145" transform="translate(-5027.413 697)"/>
        <path id="Trazado_146" d="M5160.662-571.4a.253.253 0 0 1-.269.251.264.264 0 0 1-.252-.259.271.271 0 0 1 .267-.263.262.262 0 0 1 .254.271z" class="cls-1" data-name="Trazado 146" transform="translate(-5150.702 580.583)"/>
        <path id="Trazado_147" d="M5168.033-578.783a.254.254 0 0 1-.255.267.265.265 0 0 1-.265-.261.269.269 0 0 1 .252-.261.259.259 0 0 1 .268.255z" class="cls-1" data-name="Trazado 147" transform="translate(-5157.549 587.427)"/>
        <path id="Trazado_148" d="M5153.029-564.3a.266.266 0 0 1 .267.26.253.253 0 0 1-.245.261.261.261 0 0 1-.276-.248.269.269 0 0 1 .254-.273z" class="cls-1" data-name="Trazado 148" transform="translate(-5143.859 573.742)"/>
        <path id="Trazado_149" d="M5145.931-556.671a.255.255 0 0 1-.257.265.259.259 0 0 1-.265-.259.269.269 0 0 1 .251-.261.266.266 0 0 1 .271.255z" class="cls-1" data-name="Trazado 149" transform="translate(-5137.019 566.889)"/>
        <path id="Trazado_150" d="M5168.054-549.278a.253.253 0 0 1-.259.262.26.26 0 0 1-.261-.262.27.27 0 0 1 .254-.258.262.262 0 0 1 .266.258z" class="cls-1" data-name="Trazado 150" transform="translate(-5157.568 560.024)"/>
        <path id="Trazado_151" d="M5175.429-556.65a.253.253 0 0 1-.263.258.262.262 0 0 1-.258-.267.269.269 0 0 1 .258-.254.262.262 0 0 1 .263.263z" class="cls-1" data-name="Trazado 151" transform="translate(-5164.419 566.875)"/>
        <path id="Trazado_152" d="M5175.175-571.135a.262.262 0 0 1-.265-.259.268.268 0 0 1 .266-.261.259.259 0 0 1 .253.255.253.253 0 0 1-.254.265z" class="cls-1" data-name="Trazado 152" transform="translate(-5164.421 580.57)"/>
        <path id="Trazado_153" d="M5168.048-564.032a.253.253 0 0 1-.259.261.262.262 0 0 1-.262-.263.272.272 0 0 1 .256-.258.262.262 0 0 1 .265.26z" class="cls-1" data-name="Trazado 153" transform="translate(-5157.563 573.729)"/>
        <path id="Trazado_154" d="M5153.04-549.018a.26.26 0 0 1-.255-.268.269.269 0 0 1 .259-.252.262.262 0 0 1 .261.264.253.253 0 0 1-.265.256z" class="cls-1" data-name="Trazado 154" transform="translate(-5143.868 560.025)"/>
        <path id="Trazado_155" d="M5160.427-556.393a.261.261 0 0 1-.269-.256.269.269 0 0 1 .264-.264.261.261 0 0 1 .257.252.252.252 0 0 1-.252.268z" class="cls-1" data-name="Trazado 155" transform="translate(-5150.718 566.876)"/>
        <path id="Trazado_156" d="M5189.965-556.393a.254.254 0 0 1-.266-.254.262.262 0 0 1 .258-.266.264.264 0 0 1 .259.25.256.256 0 0 1-.251.27z" class="cls-1" data-name="Trazado 156" transform="translate(-5178.157 566.876)"/>
        <path id="Trazado_157" d="M5182.817-564.028a.254.254 0 0 1-.26.261.26.26 0 0 1-.259-.265.266.266 0 0 1 .255-.256.261.261 0 0 1 .264.26z" class="cls-1" data-name="Trazado 157" transform="translate(-5171.282 573.726)"/>
        <path id="Trazado_158" d="M5182.822-549.279a.253.253 0 0 1-.254.265.257.257 0 0 1-.264-.258.265.265 0 0 1 .249-.261.26.26 0 0 1 .269.254z" class="cls-1" data-name="Trazado 158" transform="translate(-5171.287 560.02)"/>
        <path id="Trazado_159" d="M5197.348-549.013a.252.252 0 0 1-.258-.262.26.26 0 0 1 .249-.257.265.265 0 0 1 .27.257.258.258 0 0 1-.261.262z" class="cls-1" data-name="Trazado 159" transform="translate(-5185.022 560.019)"/>
        <path id="Trazado_160" d="M5160.677-541.887a.254.254 0 0 1-.262.26.262.262 0 0 1-.259-.266.267.267 0 0 1 .258-.254.259.259 0 0 1 .263.26z" class="cls-1" data-name="Trazado 160" transform="translate(-5150.717 553.16)"/>
        <path id="Trazado_161" d="M5167.8-534.744a.254.254 0 0 1 .252.268.255.255 0 0 1-.257.25.263.263 0 0 1-.263-.261.262.262 0 0 1 .268-.257z" class="cls-1" data-name="Trazado 161" transform="translate(-5157.569 546.283)"/>
        <path id="Trazado_162" d="M5212.1-534.228a.255.255 0 0 1-.256-.265.254.254 0 0 1 .252-.253.262.262 0 0 1 .268.257.263.263 0 0 1-.264.261z" class="cls-1" data-name="Trazado 162" transform="translate(-5198.726 546.285)"/>
        <path id="Trazado_163" d="M5175.433-527.092a.258.258 0 0 1-.266.256.266.266 0 0 1-.253-.257.261.261 0 0 1 .262-.261.251.251 0 0 1 .257.262z" class="cls-1" data-name="Trazado 163" transform="translate(-5164.424 539.419)"/>
        <path id="Trazado_164" d="M5189.959-512.085a.263.263 0 0 1-.265-.26.255.255 0 0 1 .246-.26.253.253 0 0 1 .271.248.261.261 0 0 1-.252.272z" class="cls-1" data-name="Trazado 164" transform="translate(-5178.153 525.719)"/>
        <path id="Trazado_165" d="M5175.18-542.141a.257.257 0 0 1 .254.268.251.251 0 0 1-.269.25.262.262 0 0 1-.25-.258.264.264 0 0 1 .265-.26z" class="cls-1" data-name="Trazado 165" transform="translate(-5164.425 553.154)"/>
        <path id="Trazado_166" d="M5204.977-541.888a.261.261 0 0 1-.278.246.251.251 0 0 1-.24-.278.261.261 0 0 1 .267-.241.265.265 0 0 1 .251.273z" class="cls-1" data-name="Trazado 166" transform="translate(-5191.866 553.173)"/>
        <path id="Trazado_167" d="M5204.987-527.1a.265.265 0 0 1-.261.264.258.258 0 0 1-.257-.249.252.252 0 0 1 .25-.269.26.26 0 0 1 .268.254z" class="cls-1" data-name="Trazado 167" transform="translate(-5191.877 539.418)"/>
        <path id="Trazado_168" d="M5182.8-519.74a.26.26 0 0 1-.257.268.265.265 0 0 1-.262-.264.261.261 0 0 1 .253-.256.252.252 0 0 1 .266.252z" class="cls-1" data-name="Trazado 168" transform="translate(-5171.271 532.582)"/>
        <path id="Trazado_169" d="M5197.352-519.458a.259.259 0 0 1-.261-.262.251.251 0 0 1 .246-.257.257.257 0 0 1 .271.25.264.264 0 0 1-.256.269z" class="cls-1" data-name="Trazado 169" transform="translate(-5185.024 532.567)"/>
        <path id="Trazado_170" d="M5197.335-534.765a.26.26 0 0 1 .258.265.26.26 0 0 1-.27.254.255.255 0 0 1-.25-.257.259.259 0 0 1 .262-.262z" class="cls-1" data-name="Trazado 170" transform="translate(-5185.008 546.303)"/>
        <path id="Trazado_171" d="M5189.939-526.852a.26.26 0 0 1-.258-.266.258.258 0 0 1 .254-.254.255.255 0 0 1 .265.257.261.261 0 0 1-.261.263z" class="cls-1" data-name="Trazado 171" transform="translate(-5178.141 539.435)"/>
        <path id="Trazado_172" d="M5189.97-541.624a.254.254 0 0 1-.265-.254.258.258 0 0 1 .258-.264.259.259 0 0 1 .259.249.255.255 0 0 1-.252.269z" class="cls-1" data-name="Trazado 172" transform="translate(-5178.163 553.155)"/>
        <path id="Trazado_173" d="M5182.563-534.225a.26.26 0 0 1-.26-.263.259.259 0 0 1 .269-.254.254.254 0 0 1 .25.255.254.254 0 0 1-.259.262z" class="cls-1" data-name="Trazado 173" transform="translate(-5171.288 546.282)"/>
        <path id="Trazado_174" d="M5183.579-671.153a1.31 1.31 0 0 1 1.313 1.3 1.317 1.317 0 0 1-1.321 1.314 1.313 1.313 0 0 1-1.3-1.313 1.311 1.311 0 0 1 1.308-1.301zm0 2.093a.792.792 0 0 0 .792-.788.789.789 0 0 0-.783-.78.78.78 0 0 0-.79.785.787.787 0 0 0 .777.783z" class="cls-1" data-name="Trazado 174" transform="translate(-5171.254 672.991)"/>
        <path id="Trazado_175" d="M5060.922-626.97a.271.271 0 0 1 .265.264.262.262 0 0 1-.252.257.255.255 0 0 1-.269-.253.261.261 0 0 1 .256-.268z" class="cls-1" data-name="Trazado 175" transform="translate(-5058.301 631.951)"/>
        <path id="Trazado_176" d="M5083.018-604.313a.257.257 0 0 1-.26-.263.266.266 0 0 1 .255-.257.264.264 0 0 1 .266.259.256.256 0 0 1-.261.261z" class="cls-1" data-name="Trazado 176" transform="translate(-5078.821 611.388)"/>
        <path id="Trazado_177" d="M5075.4-611.954a.267.267 0 0 1 .268-.259.267.267 0 0 1 .254.258.259.259 0 0 1-.261.263.257.257 0 0 1-.261-.262z" class="cls-1" data-name="Trazado 177" transform="translate(-5071.986 618.244)"/>
        <path id="Trazado_178" d="M5075.655-597.445a.264.264 0 0 1 .266.26.257.257 0 0 1-.249.258.256.256 0 0 1-.271-.25.261.261 0 0 1 .254-.268z" class="cls-1" data-name="Trazado 178" transform="translate(-5071.989 604.526)"/>
        <path id="Trazado_179" d="M5053.566-634.321a.269.269 0 0 1 .266.262.263.263 0 0 1-.251.259.255.255 0 0 1-.269-.252.259.259 0 0 1 .254-.269z" class="cls-1" data-name="Trazado 179" transform="translate(-5051.47 638.779)"/>
        <path id="Trazado_180" d="M5060.94-612.217a.269.269 0 0 1 .258.27.259.259 0 0 1-.274.25.251.251 0 0 1-.247-.258.263.263 0 0 1 .263-.262z" class="cls-1" data-name="Trazado 180" transform="translate(-5058.311 618.246)"/>
        <path id="Trazado_181" d="M5090.633-582.418a.262.262 0 0 1-.261.264.264.264 0 0 1-.261-.266.26.26 0 0 1 .255-.254.255.255 0 0 1 .267.256z" class="cls-1" data-name="Trazado 181" transform="translate(-5085.651 590.805)"/>
        <path id="Trazado_182" d="M5046.2-626.958a.269.269 0 0 1 .257.27.26.26 0 0 1-.274.25.251.251 0 0 1-.245-.259.259.259 0 0 1 .262-.261z" class="cls-1" data-name="Trazado 182" transform="translate(-5044.623 631.939)"/>
        <path id="Trazado_183" d="M5068.559-619.318a.26.26 0 0 1-.276.248.255.255 0 0 1-.245-.275.265.265 0 0 1 .265-.245.269.269 0 0 1 .256.272z" class="cls-1" data-name="Trazado 183" transform="translate(-5065.148 625.095)"/>
        <path id="Trazado_184" d="M5090.644-597.178a.254.254 0 0 1-.27.252.259.259 0 0 1-.251-.257.265.265 0 0 1 .264-.262.26.26 0 0 1 .257.267z" class="cls-1" data-name="Trazado 184" transform="translate(-5085.663 604.525)"/>
        <path id="Trazado_185" d="M5083.014-590.05a.259.259 0 0 1 .266.257.259.259 0 0 1-.262.262.261.261 0 0 1-.259-.25.26.26 0 0 1 .255-.269z" class="cls-1" data-name="Trazado 185" transform="translate(-5078.822 597.656)"/>
        <path id="Trazado_186" d="M5053.56-619.082a.254.254 0 0 1-.263-.26.263.263 0 0 1 .264-.262.274.274 0 0 1 .259.256.263.263 0 0 1-.26.266z" class="cls-1" data-name="Trazado 186" transform="translate(-5051.456 625.108)"/>
        <path id="Trazado_187" d="M5068.56-604.57a.26.26 0 0 1-.27.255.255.255 0 0 1-.253-.269.264.264 0 0 1 .26-.251.268.268 0 0 1 .263.265z" class="cls-1" data-name="Trazado 187" transform="translate(-5065.148 611.391)"/>
        <path id="Trazado_188" d="M5098.009-575.01a.262.262 0 0 1-.271.253.268.268 0 0 1-.25-.262.259.259 0 0 1 .266-.257.252.252 0 0 1 .255.266z" class="cls-1" data-name="Trazado 188" transform="translate(-5092.505 583.932)"/>
        <path id="Trazado_189" d="M5105.125-582.137a.266.266 0 0 1-.265-.261.261.261 0 0 1 .251-.257.251.251 0 0 1 .269.251.258.258 0 0 1-.255.267z" class="cls-1" data-name="Trazado 189" transform="translate(-5099.353 590.787)"/>
        <path id="Trazado_190" d="M5097.731-590.074a.257.257 0 0 1 .264.259.254.254 0 0 1-.246.261.261.261 0 0 1-.275-.25.264.264 0 0 1 .257-.27z" class="cls-1" data-name="Trazado 190" transform="translate(-5092.491 597.678)"/>
    </g>
</svg>
