<svg xmlns="http://www.w3.org/2000/svg" id="icono_altitud" width="22.334" height="11.85" data-name="icono altitud" viewBox="0 0 22.334 11.85">
    <path id="Trazado_191" fill="#ff2c4b" d="M3408.4-401.4h-.514l-4.817-8.027a1.031 1.031 0 0 0-1.339-.39l-.609.3-2.782-2.782a1.027 1.027 0 0 0-.778-.3 1.028 1.028 0 0 0-.744.378l-3.871 4.764h-.006a1.028 1.028 0 0 0-1.215.313l-4.466 5.742h-.539a.327.327 0 0 0-.327.327.327.327 0 0 0 .327.327h21.68a.327.327 0 0 0 .327-.327.327.327 0 0 0-.327-.327zm-8.609-4.552l-2.266-1.97a1.023 1.023 0 0 0-1.331-.014l-1.487 1.239-1.136-.487 3.753-4.62a.367.367 0 0 1 .27-.137.369.369 0 0 1 .282.108l2.811 2.811-.155.53a.327.327 0 0 0 .222.406.325.325 0 0 0 .092.013.328.328 0 0 0 .314-.235l.169-.58.692-.346a.374.374 0 0 1 .485.141l4.615 7.691h-2.1l-4.692-4.079m-2.915 4.079l-2.253-4.828 1.447-1.206a.37.37 0 0 1 .482.005l6.933 6.029zm-7.394 0h-1.936l4.153-5.34a.372.372 0 0 1 .44-.113l1.837.787 2.178 4.666h-5.924m1.469-5.34" data-name="Trazado 191" transform="translate(-3386.394 412.593)"/>
</svg>
