<svg xmlns="http://www.w3.org/2000/svg" id="icono_acelaracion" width="19.292" height="15.984" data-name="icono acelaracion" viewBox="0 0 19.292 15.984">
    <defs>
        <style>
            .cls-1{fill:#ff2c4b}
        </style>
    </defs>
    <g id="Grupo_129" data-name="Grupo 129">
        <g id="Grupo_128" data-name="Grupo 128">
            <path id="Trazado_136" d="M4664.507-937.342H4666.808c.25 0 .392.116.4.314s-.137.32-.385.321h-2.526c-.292 0-.39-.1-.4-.4a9.122 9.122 0 0 1 1.622-5.526 9.362 9.362 0 0 1 8.564-4.249 9.57 9.57 0 0 1 8.924 8.233 14.661 14.661 0 0 1 .093 1.523c.01.326-.1.417-.417.417h-2.463c-.285 0-.432-.113-.426-.323s.149-.312.44-.312h2.246a8.714 8.714 0 0 0-3.7-7.171 8.536 8.536 0 0 0-9.764-.517 8.768 8.768 0 0 0-4.509 7.69z" class="cls-1" data-name="Trazado 136" transform="translate(-4663.851 946.935)"/>
            <path id="Trazado_137" d="M4680.571-937.62h-1.31a.516.516 0 0 1-.382-.122.325.325 0 0 1-.086-.245c.005-.234.168-.353.482-.354h2.2a8.675 8.675 0 0 0-3.681-7.094 9.082 9.082 0 0 0-4.782-1.787 8.939 8.939 0 0 0-4.936 1.273 8.727 8.727 0 0 0-4.483 7.608h2.256c.27 0 .435.134.438.356a.335.335 0 0 1-.091.247.458.458 0 0 1-.338.117h-2.526c-.318 0-.433-.116-.439-.439a9.178 9.178 0 0 1 1.631-5.552 9.4 9.4 0 0 1 8.6-4.267 9.621 9.621 0 0 1 8.963 8.27 13.946 13.946 0 0 1 .092 1.429v.1a.47.47 0 0 1-.093.356.484.484 0 0 1-.368.1zm-.471-.637h-.825c-.35 0-.4.155-.4.271a.243.243 0 0 0 .062.183.442.442 0 0 0 .322.1h2.462a.423.423 0 0 0 .308-.079.4.4 0 0 0 .068-.295v-.1a13.741 13.741 0 0 0-.091-1.42 9.534 9.534 0 0 0-8.883-8.2 9.318 9.318 0 0 0-8.527 4.231 9.1 9.1 0 0 0-1.616 5.5c.006.275.085.355.355.356h2.525a.38.38 0 0 0 .277-.091.249.249 0 0 0 .066-.186c0-.236-.224-.272-.354-.272h-2.345v-.044a8.817 8.817 0 0 1 4.528-7.723 9.022 9.022 0 0 1 4.982-1.284 9.166 9.166 0 0 1 4.826 1.8 8.764 8.764 0 0 1 3.718 7.2v.044h-1.458z" class="cls-1" data-name="Trazado 137" transform="translate(-4662.893 947.892)"/>
        </g>
    </g>
    <g id="Grupo_131" data-name="Grupo 131" transform="translate(3.653 2.274)">
        <g id="Grupo_130" data-name="Grupo 130">
            <path id="Trazado_138" d="M4756.094-893.329a7.371 7.371 0 0 1 5.551 2.711.883.883 0 0 1 .126.17.3.3 0 0 1-.078.4.3.3 0 0 1-.408-.007.954.954 0 0 1-.126-.142 6.87 6.87 0 0 0-10.59 0c-.023.027-.044.056-.068.082a.325.325 0 0 1-.468.068.314.314 0 0 1-.029-.471 12.7 12.7 0 0 1 1.138-1.138 7.51 7.51 0 0 1 4.952-1.673z" class="cls-1" data-name="Trazado 138" transform="translate(-4749.869 893.371)"/>
            <path id="Trazado_139" d="M4760.54-890.886a.377.377 0 0 1-.238-.093.656.656 0 0 1-.1-.11l-.032-.038a6.864 6.864 0 0 0-5.263-2.477 6.856 6.856 0 0 0-5.258 2.478l-.024.031-.044.052a.367.367 0 0 1-.526.073.365.365 0 0 1-.136-.258.366.366 0 0 1 .1-.276l.229-.245a9.372 9.372 0 0 1 .913-.9 7.509 7.509 0 0 1 4.979-1.684 7.439 7.439 0 0 1 5.583 2.726l.011.013a.82.82 0 0 1 .12.166.346.346 0 0 1-.09.453.352.352 0 0 1-.224.089zm-5.633-2.8a6.95 6.95 0 0 1 5.329 2.508l.031.039a.6.6 0 0 0 .089.1.258.258 0 0 0 .354.007.263.263 0 0 0 .066-.349.757.757 0 0 0-.108-.148l-.011-.013a7.357 7.357 0 0 0-5.52-2.7 7.427 7.427 0 0 0-4.925 1.665 9.284 9.284 0 0 0-.9.888l-.229.245a.281.281 0 0 0-.081.211.277.277 0 0 0 .105.2.284.284 0 0 0 .41-.064c.014-.015.026-.032.04-.048l.027-.033a6.939 6.939 0 0 1 5.323-2.508z" class="cls-1" data-name="Trazado 139" transform="translate(-4748.913 894.329)"/>
        </g>
    </g>
    <g id="Grupo_133" data-name="Grupo 133" transform="translate(6.63 5.722)">
        <g id="Grupo_132" data-name="Grupo 132">
            <path id="Trazado_140" d="M4823.908-798.17a2.913 2.913 0 0 1-2.909-2.909 2.911 2.911 0 0 1 1.266-2.4 3.93 3.93 0 0 1 .68-.38c1.979-.82 7.756-3.761 7.814-3.791l.95-.484-5.317 8.57-.247-.152.247.153-.219.353-.018-.02a2.892 2.892 0 0 1-2.247 1.06zm6.174-8.471c-1.738.877-5.38 2.7-6.909 3.331a3.224 3.224 0 0 0-.572.321 2.316 2.316 0 0 0-1.008 1.91 2.317 2.317 0 0 0 2.314 2.314 2.3 2.3 0 0 0 1.964-1.09l.061-.1z" class="cls-1" data-name="Trazado 140" transform="translate(-4820.915 808.348)"/>
            <path id="Trazado_141" d="M4821.994-802.907A3 3 0 0 1 4819-805.9a2.994 2.994 0 0 1 1.3-2.47 3.985 3.985 0 0 1 .695-.388c1.983-.822 7.751-3.759 7.809-3.788l1.219-.622-5.754 9.277-.029-.031a2.976 2.976 0 0 1-2.246 1.015zm7.568-9.835l-.679.345c-.057.029-5.831 2.969-7.819 3.794a3.806 3.806 0 0 0-.666.371 2.824 2.824 0 0 0-1.228 2.33 2.827 2.827 0 0 0 2.824 2.824 2.81 2.81 0 0 0 2.18-1.028l.062-.075.008.01.116-.187-.174-.108.089-.144.174.108zm-7.568 9.24a2.4 2.4 0 0 1-2.4-2.4 2.4 2.4 0 0 1 1.044-1.98 3.278 3.278 0 0 1 .587-.329c1.551-.643 5.345-2.542 6.9-3.328l.271-.136-4.37 7.044a2.388 2.388 0 0 1-2.032 1.131zm5.942-7.75c-1.977 1-5.213 2.6-6.646 3.2a3.135 3.135 0 0 0-.556.312 2.232 2.232 0 0 0-.971 1.84 2.232 2.232 0 0 0 2.23 2.229 2.217 2.217 0 0 0 1.891-1.05l.061-.1z" class="cls-1" data-name="Trazado 141" transform="translate(-4819 813.169)"/>
        </g>
    </g>
</svg>
