<svg xmlns="http://www.w3.org/2000/svg" id="icono_frecuencia" width="23.24" height="15.433" data-name="icono frecuencia" viewBox="0 0 23.24 15.433">
    <defs>
        <style>
            .cls-1{fill:#ff2c4b}
        </style>
    </defs>
    <path id="Trazado_241" d="M921.729 731.419H919.2a5.08 5.08 0 0 0-.888-5.083.34.34 0 1 0-.517.442 4.391 4.391 0 0 1-.233 5.951v.005c-.023.024-2.315 2.415-4.191 4.314a.34.34 0 1 0 .484.478c1.519-1.537 3.309-3.395 3.953-4.065h3.923a1.021 1.021 0 1 0 0-2.043zm0 1.362h-3.3a5.059 5.059 0 0 0 .457-.681h2.842a.34.34 0 0 1 0 .681zm0 0" class="cls-1" data-name="Trazado 241" transform="translate(-899.51 -724.561)"/>
    <path id="Trazado_242" d="M859.039 731.66c-.712.706-1.054 1.022-1.218 1.163-.785-.675-4.024-4-6.186-6.25l2.38-2.38 4.532 4.532a1.022 1.022 0 0 0 1.445 0l2.014-2.014a1.021 1.021 0 1 0-1.444-1.444l-1.292 1.292-4.532-4.532a1.021 1.021 0 0 0-1.444 0l-1.159 1.159a.34.34 0 0 0 .481.481l1.159-1.159a.34.34 0 0 1 .481 0l4.772 4.772a.34.34 0 0 0 .482 0l1.533-1.533a.34.34 0 0 1 .481.481l-2.014 2.014a.341.341 0 0 1-.482 0l-4.772-4.773a.34.34 0 0 0-.481 0l-2.634 2.633a.338.338 0 0 1-.241.1h-3.676a.34.34 0 1 1 0-.681h3.395a.34.34 0 0 0 .24-.1l.731-.731a.34.34 0 0 0-.481-.481l-.631.632h-.061a4.41 4.41 0 0 1 .97-4.73 4.35 4.35 0 0 1 3.1-1.284 4.35 4.35 0 0 1 3.1 1.284.34.34 0 0 0 .482 0 4.329 4.329 0 0 1 2.625-1.259 4.4 4.4 0 0 1 2.791.638.34.34 0 1 0 .361-.577 5.057 5.057 0 0 0-6.017.491 5.021 5.021 0 0 0-3.338-1.258 5.027 5.027 0 0 0-3.579 1.484 5.1 5.1 0 0 0-1.214 5.211h-2.468a1.021 1.021 0 1 0 0 2.042h3.756c.353.368 1.748 1.819 3.153 3.255.951.972 1.72 1.746 2.287 2.3 1.164 1.142 1.232 1.142 1.4 1.142s.246 0 1.7-1.437a.341.341 0 0 0-.479-.484zm0 0" class="cls-1" data-name="Trazado 242" transform="translate(-846.203 -718.147)"/>
</svg>
