<svg xmlns="http://www.w3.org/2000/svg" id="icono_potencia" width="11.298" height="18.547" data-name="icono potencia" viewBox="0 0 11.298 18.547">
    <path id="Trazado_248" fill="#ff2c4b" d="M1251.451 729.546a.32.32 0 0 1-.3-.421l2.418-7.253h-4.246a.32.32 0 0 1-.259-.508l7.461-10.233a.32.32 0 0 1 .57.262l-1.613 6.855h4.5a.32.32 0 0 1 .25.52l-8.527 10.659a.32.32 0 0 1-.254.119zm-1.5-8.314h4.061a.32.32 0 0 1 .3.421l-1.991 5.973 6.991-8.739h-4.238a.32.32 0 0 1-.311-.393l1.343-5.708z" data-name="Trazado 248" transform="translate(-1249 -710.999)"/>
</svg>
