<svg xmlns="http://www.w3.org/2000/svg" id="icono_velocidad" width="22.557" height="16.959" data-name="icono velocidad" viewBox="0 0 22.557 16.959">
    <defs>
        <style>
            .cls-1{fill:#ff2c4b}
        </style>
    </defs>
    <path id="Trazado_249" d="M1399.658 725.045h3.485a.331.331 0 0 0 0-.661h-3.485a.331.331 0 0 0 0 .661zm0 0" class="cls-1" data-name="Trazado 249" transform="translate(-1397.946 -721.271)"/>
    <path id="Trazado_250" d="M1410.861 735.509h-1.377a.33.33 0 0 0 0 .661h1.377a.33.33 0 1 0 0-.661zm0 0" class="cls-1" data-name="Trazado 250" transform="translate(-1405.783 -730.144)"/>
    <path id="Trazado_251" d="M1392.831 744.226h3.371a.33.33 0 1 0 0-.661h-3.371a.33.33 0 1 0 0 .661zm0 0" class="cls-1" data-name="Trazado 251" transform="translate(-1392.5 -736.569)"/>
    <path id="Trazado_252" d="M1403.474 774.468a.33.33 0 0 0-.33-.33h-3.485a.33.33 0 0 0 0 .661h3.485a.33.33 0 0 0 .33-.331zm0 0" class="cls-1" data-name="Trazado 252" transform="translate(-1397.946 -760.954)"/>
    <path id="Trazado_253" d="M1410.861 763.014h-1.377a.33.33 0 0 0 0 .661h1.377a.33.33 0 1 0 0-.661zm0 0" class="cls-1" data-name="Trazado 253" transform="translate(-1405.783 -752.081)"/>
    <path id="Trazado_254" d="M1396.532 755.289a.33.33 0 0 0-.33-.331h-3.371a.33.33 0 1 0 0 .661h3.371a.33.33 0 0 0 .33-.33zm0 0" class="cls-1" data-name="Trazado 254" transform="translate(-1392.5 -745.656)"/>
    <path id="Trazado_255" d="M1460.749 726.675a.331.331 0 0 0 .33-.331v-.5a.33.33 0 0 0-.661 0v.5a.33.33 0 0 0 .331.331zm0 0" class="cls-1" data-name="Trazado 255" transform="translate(-1446.671 -722.168)"/>
    <path id="Trazado_256" d="M1476.371 732.563a.33.33 0 0 0-.467 0l-.357.357a.33.33 0 0 0 .467.467l.357-.357a.331.331 0 0 0 0-.468zm0 0" class="cls-1" data-name="Trazado 256" transform="translate(-1458.661 -727.717)"/>
    <path id="Trazado_257" d="M1482.007 749.261a.33.33 0 0 0 0 .661h.5a.33.33 0 1 0 0-.661zm0 0" class="cls-1" data-name="Trazado 257" transform="translate(-1463.628 -741.112)"/>
    <path id="Trazado_258" d="M1476.014 764.391a.33.33 0 1 0-.467.467l.357.357a.33.33 0 0 0 .467-.467zm0 0" class="cls-1" data-name="Trazado 258" transform="translate(-1458.661 -753.103)"/>
    <path id="Trazado_259" d="M1460.418 770.852v.5a.33.33 0 1 0 .661 0v-.5a.33.33 0 1 0-.661 0zm0 0" class="cls-1" data-name="Trazado 259" transform="translate(-1446.671 -758.069)"/>
    <path id="Trazado_260" d="M1444.076 764.391l-.357.357a.33.33 0 0 0 .467.467l.356-.357a.33.33 0 0 0-.467-.467zm0 0" class="cls-1" data-name="Trazado 260" transform="translate(-1433.276 -753.103)"/>
    <path id="Trazado_261" d="M1437 749.261a.33.33 0 1 0 0 .661h.5a.33.33 0 1 0 0-.661zm0 0" class="cls-1" data-name="Trazado 261" transform="translate(-1427.728 -741.112)"/>
    <path id="Trazado_262" d="M1444.544 732.92l-.357-.357a.331.331 0 0 0-.467.468l.357.357a.33.33 0 0 0 .467-.467zm0 0" class="cls-1" data-name="Trazado 262" transform="translate(-1433.276 -727.717)"/>
    <path id="Trazado_263" d="M1462.525 738.623a.331.331 0 0 0-.331-.33h-1.116v-2.453a.33.33 0 0 0-.661 0v2.784a.33.33 0 0 0 .331.33h1.446a.33.33 0 0 0 .331-.33zm0 0" class="cls-1" data-name="Trazado 263" transform="translate(-1446.671 -730.144)"/>
    <path id="Trazado_264" d="M1442.355 724.879a.33.33 0 0 0 .31-.35 6.582 6.582 0 1 0-.061 1.39.33.33 0 1 0-.654-.1 5.931 5.931 0 1 1 .055-1.252.331.331 0 0 0 .35.309zm0 0" class="cls-1" data-name="Trazado 264" transform="translate(-1422.013 -716.454)"/>
    <path id="Trazado_265" d="M1424.577 709a8.472 8.472 0 0 0-3.349.692h-5.83a.33.33 0 1 0 0 .661h4.587a8.468 8.468 0 0 0-1.695 1.436.331.331 0 0 0 .49.444 7.8 7.8 0 1 1-.775 1.009.33.33 0 0 0-.555-.359 8.477 8.477 0 0 0 2.536 11.723h-4.586a.33.33 0 1 0 0 .661h5.825a8.479 8.479 0 1 0 3.352-16.267zm0 0" class="cls-1" data-name="Trazado 265" transform="translate(-1410.5 -709)"/>
</svg>
