<svg xmlns="http://www.w3.org/2000/svg" id="icono_calorias" width="15.705" height="17.15" data-name="icono calorias" viewBox="0 0 15.705 17.15">
    <defs>
        <style>
            .cls-1{fill:#ff2c4b}
        </style>
    </defs>
    <path id="Trazado_243" d="M1076.239 716.119a.251.251 0 0 0-.227.213 3.867 3.867 0 0 1-.943 1.945 6.638 6.638 0 0 0 .137-2.5 6.5 6.5 0 0 0-1.109-2.807 9.774 9.774 0 0 1-1.77-4.1 4.368 4.368 0 0 1 0-1.556.253.253 0 0 0-.41-.252 9.434 9.434 0 0 0-2.824 4.246 7.8 7.8 0 0 0-.224.92 5.05 5.05 0 0 0-2.513-1.834.253.253 0 0 0-.292.367 3.274 3.274 0 0 1-.038 3.372.251.251 0 0 0 .46.2 3.908 3.908 0 0 0 .314-3.212 3.342 3.342 0 0 1 1.977 2.256.252.252 0 0 0 .5-.054 7.769 7.769 0 0 1 2.485-5.422 9.11 9.11 0 0 0 1.927 5.351 6.027 6.027 0 0 1 .629 5.759.253.253 0 0 0 .377.3 4.778 4.778 0 0 0 1.555-1.963 3.122 3.122 0 0 1 .052.515 5.791 5.791 0 0 1-5.782 5.786 5.394 5.394 0 0 1-4.038-1.743 4.991 4.991 0 0 1-1.223-3.94 8.185 8.185 0 0 1 .589-2.194.251.251 0 0 0-.465-.19 8.668 8.668 0 0 0-.623 2.328 5.488 5.488 0 0 0 1.348 4.331 5.9 5.9 0 0 0 4.413 1.911 6.294 6.294 0 0 0 6.285-6.289 6.21 6.21 0 0 0-.3-1.57.252.252 0 0 0-.26-.172zm0 0" class="cls-1" data-name="Trazado 243" transform="translate(-1064.717 -707)"/>
    <path id="Trazado_244" d="M1114.57 708.533h.753v.753a.251.251 0 0 0 .5 0v-.753h.753a.251.251 0 0 0 0-.5h-.753v-.753a.251.251 0 0 0-.5 0v.753h-.753a.251.251 0 0 0 0 .5zm0 0" class="cls-1" data-name="Trazado 244" transform="translate(-1104.704 -707.027)"/>
    <path id="Trazado_245" d="M1135.074 716.773h-.753v-.753a.251.251 0 0 0-.5 0v.753h-.753a.251.251 0 0 0 0 .5h.753v.753a.251.251 0 0 0 .5 0v-.753h.753a.251.251 0 0 0 0-.5zm0 0" class="cls-1" data-name="Trazado 245" transform="translate(-1119.612 -714.075)"/>
    <path id="Trazado_246" d="M1122.092 728.964h-.753v-.753a.251.251 0 1 0-.5 0v.753h-.753a.251.251 0 0 0 0 .5h.753v.753a.251.251 0 0 0 .5 0v-.753h.753a.251.251 0 0 0 0-.5zm0 0" class="cls-1" data-name="Trazado 246" transform="translate(-1109.147 -723.893)"/>
    <path id="Trazado_247" d="M1087.09 761.512a.251.251 0 0 0 .432-.256c-.434-.732-.844-1.322-.861-1.347a.255.255 0 0 0-.413 0c-.19.273-1.856 2.693-1.856 3.742a2.062 2.062 0 1 0 4.124 0 3.405 3.405 0 0 0-.421-1.338.251.251 0 0 0-.452.218 2.916 2.916 0 0 1 .371 1.119 1.56 1.56 0 1 1-3.119 0 9.679 9.679 0 0 1 1.559-3.15c.161.242.4.607.635 1.011zm0 0" class="cls-1" data-name="Trazado 247" transform="translate(-1080.577 -749.56)"/>
</svg>
