<svg xmlns="http://www.w3.org/2000/svg" id="icono_cadencia" width="16.425" height="16.425" data-name="icono cadencia" viewBox="0 0 16.425 16.425">
    <defs>
        <style>
            .cls-1{fill:#ff2c4b}
        </style>
    </defs>
    <path id="Trazado_239" d="M692.723 717.537a1.194 1.194 0 0 0-.85.352l-1.393 1.393-2.2-2.2a5.549 5.549 0 0 0 .821-2.192h.322a.265.265 0 0 0 .265-.265v-1.06a.265.265 0 0 0-.265-.265h-.323a5.546 5.546 0 0 0-.925-2.352l.375-.375a.264.264 0 0 0 0-.375l-1.06-1.06a.264.264 0 0 0-.375 0l-.375.375a5.54 5.54 0 0 0-2.352-.925v-.322a.265.265 0 0 0-.265-.265h-1.06a.265.265 0 0 0-.265.265v.322a5.54 5.54 0 0 0-2.352.925l-.375-.375a.265.265 0 0 0-.375 0l-1.06 1.06a.264.264 0 0 0 0 .375l.375.375a5.545 5.545 0 0 0-.925 2.352h-.322a.265.265 0 0 0-.265.265v1.06a.265.265 0 0 0 .265.265h.322a5.544 5.544 0 0 0 .925 2.352l-.375.375a.264.264 0 0 0 0 .374l1.06 1.06a.265.265 0 0 0 .375 0l.375-.375a5.544 5.544 0 0 0 2.352.925v.322a.265.265 0 0 0 .265.265h1.06a.265.265 0 0 0 .265-.265v-.323a5.545 5.545 0 0 0 2.191-.82l2.2 2.2-1.393 1.393a1.2 1.2 0 0 0 1.7 1.7l4.485-4.485a1.2 1.2 0 0 0-.85-2.051zm-2.242 3.974a.53.53 0 1 1 .53-.53.53.53 0 0 1-.53.53zM684.1 719.1a.265.265 0 0 0-.239.264v.292h-.53v-.292a.265.265 0 0 0-.239-.264 5.011 5.011 0 0 1-2.512-.986.266.266 0 0 0-.347.025l-.347.347-.685-.685.347-.347a.265.265 0 0 0 .024-.347 5.013 5.013 0 0 1-.985-2.512.265.265 0 0 0-.264-.238h-.292v-.53h.292a.265.265 0 0 0 .264-.239 5.014 5.014 0 0 1 .985-2.512.265.265 0 0 0-.024-.347l-.347-.346.685-.685.347.347a.265.265 0 0 0 .347.025 5.011 5.011 0 0 1 2.512-.985.266.266 0 0 0 .239-.264v-.292h.53v.292a.265.265 0 0 0 .239.264 5.008 5.008 0 0 1 2.512.985.264.264 0 0 0 .347-.025l.347-.347.685.685-.347.347a.265.265 0 0 0-.024.346 5.012 5.012 0 0 1 .985 2.512.265.265 0 0 0 .264.238h.292v.53h-.292a.265.265 0 0 0-.264.239 5.011 5.011 0 0 1-.707 2.1l-.778-.778a3.93 3.93 0 0 0 .367-1.029h.349a.265.265 0 0 0 .265-.265v-1.06a.265.265 0 0 0-.265-.265h-.349a3.984 3.984 0 0 0-.559-1.366l.3-.3a.264.264 0 0 0 0-.375l-.795-.795a.265.265 0 0 0-.375 0l-.3.3a3.98 3.98 0 0 0-1.367-.559v-.349a.265.265 0 0 0-.265-.265h-1.06a.265.265 0 0 0-.265.265v.349a3.974 3.974 0 0 0-1.366.559l-.3-.3a.265.265 0 0 0-.375 0l-.795.795a.265.265 0 0 0 0 .375l.3.3a3.97 3.97 0 0 0-.559 1.366h-.349a.265.265 0 0 0-.265.265v1.06a.265.265 0 0 0 .265.265h.349a3.98 3.98 0 0 0 .559 1.366l-.3.3a.265.265 0 0 0 0 .375l.795.795a.264.264 0 0 0 .374 0l.3-.3a3.966 3.966 0 0 0 1.366.559v.349a.265.265 0 0 0 .265.265h1.06a.265.265 0 0 0 .265-.265v-.349a3.918 3.918 0 0 0 1.029-.367l.778.778a5 5 0 0 1-2.1.707zm-.5-6.862a1.854 1.854 0 0 0 0 3.709c.048 0 .1 0 .148-.007l.456.456a2.393 2.393 0 1 1 1.7-1.7l-.456-.456c0-.051.007-.1.007-.148a1.857 1.857 0 0 0-1.854-1.854zm0-1.06a2.914 2.914 0 1 0 1.025 5.638l.4.4a3.409 3.409 0 0 1-.938.275.265.265 0 0 0-.227.263v.307h-.53v-.307a.265.265 0 0 0-.227-.263 3.431 3.431 0 0 1-1.543-.631.266.266 0 0 0-.344.026l-.27.27-.42-.42.27-.27a.264.264 0 0 0 .026-.344 3.436 3.436 0 0 1-.631-1.543.266.266 0 0 0-.262-.227h-.307v-.53h.307a.265.265 0 0 0 .262-.227 3.437 3.437 0 0 1 .631-1.543.265.265 0 0 0-.026-.344l-.27-.27.42-.42.27.27a.265.265 0 0 0 .344.026 3.437 3.437 0 0 1 1.543-.631.265.265 0 0 0 .227-.262v-.307h.53v.307a.265.265 0 0 0 .227.262 3.433 3.433 0 0 1 1.543.631.266.266 0 0 0 .344-.026l.27-.27.42.42-.27.27a.264.264 0 0 0-.026.344A3.437 3.437 0 0 1 687 713.6a.265.265 0 0 0 .263.227h.307v.53h-.307a.265.265 0 0 0-.263.227 3.4 3.4 0 0 1-.275.938l-.4-.4a2.907 2.907 0 0 0-2.725-3.939zm.431 4.3a.263.263 0 0 0-.228-.074 1.324 1.324 0 1 1 1.121-1.307 1.313 1.313 0 0 1-.018.2.265.265 0 0 0 .074.228l5.132 5.132-.95.95zm4.689 8.224a.672.672 0 0 1-.95-.95l1.668-1.668a1.054 1.054 0 0 0 .95.95zm4.485-4.485l-1.668 1.668a1.054 1.054 0 0 0-.95-.95l1.668-1.668a.672.672 0 0 1 .95.95zm0 0" class="cls-1" data-name="Trazado 239" transform="translate(-677.5 -708)"/>
    <path id="Rectángulo_75" d="M0 0H0.53V0.53H0z" class="cls-1" data-name="Rectángulo 75" transform="translate(10.861 14.835)"/>
    <path id="Rectángulo_76" d="M0 0H0.53V0.53H0z" class="cls-1" data-name="Rectángulo 76" transform="translate(14.835 10.597)"/>
    <path id="Trazado_240" d="M711.2 740.9a.795.795 0 1 0 .795.795.8.8 0 0 0-.795-.795zm0 1.06a.265.265 0 1 1 .265-.265.265.265 0 0 1-.265.265zm0 0" class="cls-1" data-name="Trazado 240" transform="translate(-705.105 -735.605)"/>
</svg>
