<svg xmlns="http://www.w3.org/2000/svg" id="icono_tiempo" width="16.33" height="19.011" data-name="icono tiempo" viewBox="0 0 16.33 19.011">
    <defs>
        <style>
            .cls-1{fill:#ff2c4b}
        </style>
    </defs>
    <g id="Grupo_140" data-name="Grupo 140">
        <path id="Trazado_142" d="M4103.8-702.048l.809-1.407a.28.28 0 0 0-.1-.382l-1.143-.657a.281.281 0 0 0-.383.1l-.807 1.405a8.123 8.123 0 0 0-2.287-.61v-.855h.569a.28.28 0 0 0 .279-.28v-1.318a.28.28 0 0 0-.279-.28h-3.014a.28.28 0 0 0-.279.28v1.318a.28.28 0 0 0 .279.28h.556v.854a8.1 8.1 0 0 0-2.286.61l-.807-1.406a.28.28 0 0 0-.382-.1l-1.143.657a.28.28 0 0 0-.1.382l.808 1.408a8.164 8.164 0 0 0-2.9 9.121 8.164 8.164 0 0 0 7.754 5.61 8.166 8.166 0 0 0 7.755-5.61 8.165 8.165 0 0 0-2.9-9.121zm-.474-1.823l.658.379-.646 1.127q-.32-.2-.659-.379zm-5.6-1.9h2.454v.759h-2.454zm.847 1.318h.758v.809c-.125-.006-.251-.01-.379-.01s-.252 0-.379.01zm-4.657.958l.658-.378.647 1.125c-.226.116-.446.243-.658.379zm5.036 15.61a7.6 7.6 0 0 1-7.026-4.695 7.6 7.6 0 0 1 1.649-8.288 7.6 7.6 0 0 1 8.288-1.649 7.607 7.607 0 0 1 4.694 7.026 7.614 7.614 0 0 1-7.605 7.6zm0 0" class="cls-1" data-name="Trazado 142" transform="translate(-4090.778 706.328)"/>
    </g>
    <path id="Trazado_143" d="M4136.855-612.381a6.323 6.323 0 0 0-.018-6.326.214.214 0 0 0-.013-.028l-.016-.022a6.376 6.376 0 0 0-2.254-2.243l-.024-.018-.028-.012a6.316 6.316 0 0 0-6.325.017l-.029.013-.021.016a6.39 6.39 0 0 0-2.244 2.255.175.175 0 0 0-.03.052 6.318 6.318 0 0 0 .018 6.325.288.288 0 0 0 .012.028.172.172 0 0 0 .013.016 6.383 6.383 0 0 0 2.258 2.248.189.189 0 0 0 .025.018.216.216 0 0 0 .021.009 6.319 6.319 0 0 0 6.339-.018l.021-.009.021-.016a6.377 6.377 0 0 0 2.247-2.261.151.151 0 0 0 .014-.018l.013-.028zm-2.342 1.69l-.359-.613a.28.28 0 1 0-.483.283l.36.614a5.736 5.736 0 0 1-2.4.653v-.714a.28.28 0 0 0-.56 0v.714a5.735 5.735 0 0 1-2.369-.638l.356-.616a.28.28 0 0 0-.484-.28l-.355.615a5.816 5.816 0 0 1-1.706-1.7l.613-.36a.28.28 0 0 0-.283-.483l-.614.36a5.741 5.741 0 0 1-.653-2.4h.714a.28.28 0 1 0 0-.559h-.714a5.727 5.727 0 0 1 .638-2.369l.616.356a.28.28 0 0 0 .281-.484l-.615-.356a5.819 5.819 0 0 1 1.7-1.7l.359.613a.28.28 0 0 0 .483-.283l-.36-.614a5.742 5.742 0 0 1 2.4-.653v.714a.28.28 0 0 0 .56 0v-.714a5.74 5.74 0 0 1 2.369.638l-.357.616a.28.28 0 0 0 .1.385.28.28 0 0 0 .384-.105l.356-.616a5.821 5.821 0 0 1 1.7 1.7l-.613.359a.28.28 0 0 0-.1.383.279.279 0 0 0 .383.1l.615-.36a5.748 5.748 0 0 1 .651 2.4h-.713a.28.28 0 0 0 0 .56h.713a5.723 5.723 0 0 1-.638 2.368l-.616-.357a.28.28 0 0 0-.28.484l.615.356a5.821 5.821 0 0 1-1.7 1.705zm0 0" class="cls-1" data-name="Trazado 143" transform="translate(-4123.19 626.37)"/>
    <path id="Trazado_144" d="M4225.512-577.843a.28.28 0 0 0-.28-.28h-2.693a1.283 1.283 0 0 0-.966-.966v-2.694a.28.28 0 1 0-.56 0v2.694a1.278 1.278 0 0 0-.948.89 1.28 1.28 0 0 0 .324 1.26 1.278 1.278 0 0 0 1.26.324 1.28 1.28 0 0 0 .89-.948h2.693a.281.281 0 0 0 .28-.28zm-4.22.718a.718.718 0 0 1-.664-.443.717.717 0 0 1 .156-.783.718.718 0 0 1 .783-.156.719.719 0 0 1 .443.664.72.72 0 0 1-.718.718zm0 0" class="cls-1" data-name="Trazado 144" transform="translate(-4213.128 588.685)"/>
</svg>
